<svg width="100" height="100" viewBox="0 0 100 100"  xmlns="http://www.w3.org/2000/svg">
  <title>Tableau</title>
  <path d="M79.1667 11.5276H20.8333C16.231 11.5276 12.5 14.9683 12.5 19.2126V73.0077C12.5 77.252 16.231 80.6927 20.8333 80.6927H79.1667C83.769 80.6927 87.5 77.252 87.5 73.0077V19.2126C87.5 14.9683 83.769 11.5276 79.1667 11.5276Z"   stroke-linecap="round" stroke-linejoin="round"/>
  <path class="svg-anim" d="M35.4167 38.425C38.8685 38.425 41.6667 35.8444 41.6667 32.6612C41.6667 29.478 38.8685 26.8975 35.4167 26.8975C31.9649 26.8975 29.1667 29.478 29.1667 32.6612C29.1667 35.8444 31.9649 38.425 35.4167 38.425Z"   stroke-linecap="round" stroke-linejoin="round"/>
  <path class="svg-anim" d="M87.5 57.6376L66.6667 38.425L20.8333 80.6926"   stroke-linecap="round" stroke-linejoin="round"/>
</svg>
